<svg width="1280" height="720" xmlns="http://www.w3.org/2000/svg" xmlns:xlink="http://www.w3.org/1999/xlink" overflow="hidden"><defs><filter id="fx0" x="-10%" y="-10%" width="120%" height="120%" filterUnits="userSpaceOnUse" primitiveUnits="userSpaceOnUse"><feComponentTransfer color-interpolation-filters="sRGB"><feFuncR type="discrete" tableValues="0 0"/><feFuncG type="discrete" tableValues="0 0"/><feFuncB type="discrete" tableValues="0 0"/><feFuncA type="linear" slope="0.4" intercept="0"/></feComponentTransfer><feGaussianBlur stdDeviation="1.77778 1.77778"/></filter><filter id="fx1" x="-10%" y="-10%" width="120%" height="120%" filterUnits="userSpaceOnUse" primitiveUnits="userSpaceOnUse"><feComponentTransfer color-interpolation-filters="sRGB"><feFuncR type="discrete" tableValues="0 0"/><feFuncG type="discrete" tableValues="0 0"/><feFuncB type="discrete" tableValues="0 0"/><feFuncA type="linear" slope="0.4" intercept="0"/></feComponentTransfer><feGaussianBlur stdDeviation="1.77778 1.77778"/></filter><filter id="fx2" x="-10%" y="-10%" width="120%" height="120%" filterUnits="userSpaceOnUse" primitiveUnits="userSpaceOnUse"><feComponentTransfer color-interpolation-filters="sRGB"><feFuncR type="discrete" tableValues="0 0"/><feFuncG type="discrete" tableValues="0 0"/><feFuncB type="discrete" tableValues="0 0"/><feFuncA type="linear" slope="0.4" intercept="0"/></feComponentTransfer><feGaussianBlur stdDeviation="1.77778 1.77778"/></filter><filter id="fx3" x="-10%" y="-10%" width="120%" height="120%" filterUnits="userSpaceOnUse" primitiveUnits="userSpaceOnUse"><feComponentTransfer color-interpolation-filters="sRGB"><feFuncR type="discrete" tableValues="0 0"/><feFuncG type="discrete" tableValues="0 0"/><feFuncB type="discrete" tableValues="0 0"/><feFuncA type="linear" slope="0.4" intercept="0"/></feComponentTransfer><feGaussianBlur stdDeviation="1.77778 1.77778"/></filter><filter id="fx4" x="-10%" y="-10%" width="120%" height="120%" filterUnits="userSpaceOnUse" primitiveUnits="userSpaceOnUse"><feComponentTransfer color-interpolation-filters="sRGB"><feFuncR type="discrete" tableValues="0 0"/><feFuncG type="discrete" tableValues="0 0"/><feFuncB type="discrete" tableValues="0 0"/><feFuncA type="linear" slope="0.4" intercept="0"/></feComponentTransfer><feGaussianBlur stdDeviation="1.77778 1.77778"/></filter><filter id="fx5" x="-10%" y="-10%" width="120%" height="120%" filterUnits="userSpaceOnUse" primitiveUnits="userSpaceOnUse"><feComponentTransfer color-interpolation-filters="sRGB"><feFuncR type="discrete" tableValues="0 0"/><feFuncG type="discrete" tableValues="0 0"/><feFuncB type="discrete" tableValues="0 0"/><feFuncA type="linear" slope="0.4" intercept="0"/></feComponentTransfer><feGaussianBlur stdDeviation="1.77778 1.77778"/></filter><filter id="fx6" x="-10%" y="-10%" width="120%" height="120%" filterUnits="userSpaceOnUse" primitiveUnits="userSpaceOnUse"><feComponentTransfer color-interpolation-filters="sRGB"><feFuncR type="discrete" tableValues="0 0"/><feFuncG type="discrete" tableValues="0 0"/><feFuncB type="discrete" tableValues="0 0"/><feFuncA type="linear" slope="0.4" intercept="0"/></feComponentTransfer><feGaussianBlur stdDeviation="1.77778 1.77778"/></filter><filter id="fx7" x="-10%" y="-10%" width="120%" height="120%" filterUnits="userSpaceOnUse" primitiveUnits="userSpaceOnUse"><feComponentTransfer color-interpolation-filters="sRGB"><feFuncR type="discrete" tableValues="0 0"/><feFuncG type="discrete" tableValues="0 0"/><feFuncB type="discrete" tableValues="0 0"/><feFuncA type="linear" slope="0.4" intercept="0"/></feComponentTransfer><feGaussianBlur stdDeviation="1.77778 1.77778"/></filter><filter id="fx8" x="-10%" y="-10%" width="120%" height="120%" filterUnits="userSpaceOnUse" primitiveUnits="userSpaceOnUse"><feComponentTransfer color-interpolation-filters="sRGB"><feFuncR type="discrete" tableValues="0 0"/><feFuncG type="discrete" tableValues="0 0"/><feFuncB type="discrete" tableValues="0 0"/><feFuncA type="linear" slope="0.4" intercept="0"/></feComponentTransfer><feGaussianBlur stdDeviation="1.77778 1.77778"/></filter><filter id="fx9" x="-10%" y="-10%" width="120%" height="120%" filterUnits="userSpaceOnUse" primitiveUnits="userSpaceOnUse"><feComponentTransfer color-interpolation-filters="sRGB"><feFuncR type="discrete" tableValues="0 0"/><feFuncG type="discrete" tableValues="0 0"/><feFuncB type="discrete" tableValues="0 0"/><feFuncA type="linear" slope="0.4" intercept="0"/></feComponentTransfer><feGaussianBlur stdDeviation="1.77778 1.77778"/></filter><filter id="fx10" x="-10%" y="-10%" width="120%" height="120%" filterUnits="userSpaceOnUse" primitiveUnits="userSpaceOnUse"><feComponentTransfer color-interpolation-filters="sRGB"><feFuncR type="discrete" tableValues="0 0"/><feFuncG type="discrete" tableValues="0 0"/><feFuncB type="discrete" tableValues="0 0"/><feFuncA type="linear" slope="0.4" intercept="0"/></feComponentTransfer><feGaussianBlur stdDeviation="1.77778 1.77778"/></filter><clipPath id="clip11"><rect x="0" y="0" width="1280" height="720"/></clipPath><clipPath id="clip12"><path d="M470.5 148.5 470.5 224.5 657.5 224.5 657.5 148.5ZM1.90735e-05 1.07288e-05 1280 1.07288e-05 1280 720 1.90735e-05 720Z" fill-rule="evenodd" clip-rule="evenodd"/></clipPath><clipPath id="clip13"><rect x="-2" y="-2" width="205" height="93"/></clipPath><clipPath id="clip14"><rect x="0" y="0" width="202" height="91"/></clipPath><clipPath id="clip15"><rect x="11" y="5" width="41" height="41"/></clipPath><clipPath id="clip16"><rect x="0" y="0" width="63" height="58"/></clipPath><clipPath id="clip17"><path d="M467.5 472.5 467.5 510.5 654.5 510.5 654.5 472.5ZM1.90735e-05 1.07288e-05 1280 1.07288e-05 1280 720 1.90735e-05 720Z" fill-rule="evenodd" clip-rule="evenodd"/></clipPath><clipPath id="clip18"><rect x="-2" y="-2" width="205" height="56"/></clipPath><clipPath id="clip19"><rect x="0" y="0" width="202" height="53"/></clipPath><clipPath id="clip20"><rect x="13" y="5" width="52" height="55"/></clipPath><clipPath id="clip21"><rect x="0" y="0" width="74" height="69"/></clipPath><clipPath id="clip22"><rect x="-2" y="-2" width="304" height="161"/></clipPath><clipPath id="clip23"><rect x="0" y="0" width="309" height="166"/></clipPath><clipPath id="clip24"><rect x="7" y="-2" width="303" height="161"/></clipPath><clipPath id="clip25"><rect x="0" y="0" width="309" height="166"/></clipPath><clipPath id="clip26"><rect x="-2" y="7" width="304" height="35"/></clipPath><clipPath id="clip27"><rect x="0" y="0" width="318" height="50"/></clipPath><clipPath id="clip28"><rect x="17" y="7" width="304" height="35"/></clipPath><clipPath id="clip29"><rect x="0" y="0" width="321" height="50"/></clipPath><clipPath id="clip30"><rect x="-2" y="3" width="180" height="24"/></clipPath><clipPath id="clip31"><rect x="0" y="0" width="186" height="30"/></clipPath><clipPath id="clip32"><rect x="7" y="3" width="179" height="24"/></clipPath><clipPath id="clip33"><rect x="0" y="0" width="187" height="30"/></clipPath><clipPath id="clip34"><rect x="3" y="-2" width="24" height="240"/></clipPath><clipPath id="clip35"><rect x="0" y="0" width="30" height="245"/></clipPath></defs><g clip-path="url(#clip11)"><rect x="0" y="0" width="1280" height="720" fill="#FFFFFF"/><g clip-path="url(#clip12)"><g clip-path="url(#clip13)" filter="url(#fx0)" transform="translate(466 144)"><g clip-path="url(#clip14)"><rect x="7.32849" y="7.32848" width="187" height="76" stroke="#5B9BD5" stroke-miterlimit="8" fill="#9DC3E6"/></g></g><g clip-path="url(#clip15)" filter="url(#fx1)" transform="translate(530 163)"><g clip-path="url(#clip16)"><path d="M17.3076-18.7349C17.4883-19.2407 17.6298-19.7165 17.7322-20.1621 17.8346-20.6077 17.8857-21.0775 17.8857-21.5713 17.8857-22.1615 17.7322-22.6131 17.425-22.9263 17.1179-23.2394 16.6452-23.4201 16.0068-23.4683L16.0068-24.6606 23.7935-24.6606 23.7935-23.4683C23.3358-23.396 22.9473-23.2485 22.6282-23.0256 22.309-22.8028 22.0199-22.4836 21.761-22.0681 21.502-21.6526 21.1979-20.9751 20.8486-20.0356L13.2788 0.126465 9.10547 0.126465 3.14355-20.1079C2.87858-21.0112 2.65576-21.6526 2.4751-22.032 2.29443-22.4114 2.05957-22.7185 1.77051-22.9534 1.48145-23.1882 1.07796-23.3599 0.560059-23.4683L0.560059-24.6606 10.5508-24.6606 10.5508-23.4683C9.92448-23.396 9.46077-23.2214 9.15967-22.9443 8.85856-22.6673 8.70801-22.2759 8.70801-21.77 8.70801-21.3726 8.74414-20.9841 8.81641-20.6047 8.88867-20.2253 9.03922-19.6201 9.26807-18.7891L12.8452-5.81738Z" transform="translate(19.2349 38)"/></g></g></g><rect x="470.5" y="148.5" width="187" height="76" stroke="#5B9BD5" stroke-width="0.666667" stroke-miterlimit="8" fill="#9DC3E6"/><path d="M17.3076-18.7349C17.4883-19.2407 17.6298-19.7165 17.7322-20.1621 17.8346-20.6077 17.8857-21.0775 17.8857-21.5713 17.8857-22.1615 17.7322-22.6131 17.425-22.9263 17.1179-23.2394 16.6452-23.4201 16.0068-23.4683L16.0068-24.6606 23.7935-24.6606 23.7935-23.4683C23.3358-23.396 22.9473-23.2485 22.6282-23.0256 22.309-22.8028 22.0199-22.4836 21.761-22.0681 21.502-21.6526 21.1979-20.9751 20.8486-20.0356L13.2788 0.126465 9.10547 0.126465 3.14355-20.1079C2.87858-21.0112 2.65576-21.6526 2.4751-22.032 2.29443-22.4114 2.05957-22.7185 1.77051-22.9534 1.48145-23.1882 1.07796-23.3599 0.560059-23.4683L0.560059-24.6606 10.5508-24.6606 10.5508-23.4683C9.92448-23.396 9.46077-23.2214 9.15967-22.9443 8.85856-22.6673 8.70801-22.2759 8.70801-21.77 8.70801-21.3726 8.74414-20.9841 8.81641-20.6047 8.88867-20.2253 9.03922-19.6201 9.26807-18.7891L12.8452-5.81738Z" transform="translate(546.406 198)"/><rect x="1015.5" y="298.5" width="187" height="124" stroke="#A9D18E" stroke-width="0.666667" stroke-miterlimit="8" fill="#A9D18E"/><text font-family="Cambria Math,Cambria Math_MSFontService,sans-serif" font-weight="400" font-size="37" transform="translate(1093.46 373)">ğ’</text><g clip-path="url(#clip17)"><g clip-path="url(#clip18)" filter="url(#fx2)" transform="translate(463 468)"><g clip-path="url(#clip19)"><rect x="7.32849" y="7.32849" width="187" height="38" stroke="#5B9BD5" stroke-miterlimit="8" fill="#9DC3E6"/></g></g><g clip-path="url(#clip20)" filter="url(#fx3)" transform="translate(519 466)"><g clip-path="url(#clip21)"><path d="M17.3076-18.7349C17.4883-19.2407 17.6298-19.7165 17.7322-20.1621 17.8346-20.6077 17.8857-21.0775 17.8857-21.5713 17.8857-22.1615 17.7322-22.6131 17.425-22.9263 17.1179-23.2394 16.6452-23.4201 16.0068-23.4683L16.0068-24.6606 23.7935-24.6606 23.7935-23.4683C23.3358-23.396 22.9473-23.2485 22.6282-23.0256 22.309-22.8028 22.0199-22.4836 21.761-22.0681 21.502-21.6526 21.1979-20.9751 20.8486-20.0356L13.2788 0.126465 9.10547 0.126465 3.14355-20.1079C2.87858-21.0112 2.65576-21.6526 2.4751-22.032 2.29443-22.4114 2.05957-22.7185 1.77051-22.9534 1.48145-23.1882 1.07796-23.3599 0.560059-23.4683L0.560059-24.6606 10.5508-24.6606 10.5508-23.4683C9.92448-23.396 9.46077-23.2214 9.15967-22.9443 8.85856-22.6673 8.70801-22.2759 8.70801-21.77 8.70801-21.3726 8.74414-20.9841 8.81641-20.6047 8.88867-20.2253 9.03922-19.6201 9.26807-18.7891L12.8452-5.81738Z" transform="translate(19.4853 38)"/><path d="M5.64258 2.29395C5.64258 2.8125 5.65356 3.2102 5.67554 3.48706 5.69751 3.76392 5.76343 3.97705 5.87329 4.12646 5.98315 4.27588 6.15674 4.39014 6.39404 4.46924 6.63135 4.54834 6.96533 4.64941 7.396 4.77246L7.396 5.64258 1.41064 5.64258 1.41064 4.77246C1.78857 4.6582 2.08521 4.56152 2.30054 4.48242 2.51587 4.40332 2.67847 4.28906 2.78833 4.13965 2.89819 3.99023 2.96851 3.7749 2.99927 3.49365 3.03003 3.2124 3.04541 2.8125 3.04541 2.29395L3.04541-9.45264C3.04541-9.95361 3.04321-10.3667 3.03882-10.6919 3.03442-11.0171 2.98169-11.2852 2.88062-11.4961 2.77954-11.707 2.60596-11.8718 2.35986-11.9905 2.11377-12.1091 1.75342-12.208 1.27881-12.2871L1.27881-13.1836 4.69336-13.3286 5.66895-13.3286C5.64258-12.9507 5.61182-12.5793 5.57666-12.2146 5.5415-11.8499 5.51074-11.4829 5.48438-11.1138 5.51074-11.0962 5.53491-11.0874 5.55688-11.0874 5.57886-11.0874 5.59863-11.0786 5.61621-11.061 6.17871-11.606 6.6731-12.0388 7.09937-12.3596 7.52563-12.6804 7.91455-12.9221 8.26611-13.0847 8.61768-13.2473 8.94727-13.3506 9.25488-13.3945 9.5625-13.4385 9.8877-13.4604 10.2305-13.4604 11.8213-13.4604 13.0452-12.8804 13.9021-11.7202 14.759-10.5601 15.1875-8.87695 15.1875-6.6709 15.1875-5.47559 15.0403-4.44507 14.7458-3.57935 14.4514-2.71362 14.0383-1.99731 13.5066-1.43042 12.9749-0.863525 12.3333-0.443848 11.5818-0.171387 10.8303 0.101074 9.99756 0.237305 9.0835 0.237305 7.73877 0.237305 6.5918 0.0307617 5.64258-0.382324ZM5.64258-4.97021C5.64258-4.1792 5.7063-3.52881 5.83374-3.01904 5.96118-2.50928 6.16113-2.10718 6.43359-1.81274 6.70605-1.51831 7.05102-1.31616 7.46851-1.2063 7.88599-1.09644 8.38037-1.0415 8.95166-1.0415 10.103-1.0415 10.9666-1.48975 11.5422-2.38623 12.1179-3.28271 12.4058-4.61426 12.4058-6.38086 12.4058-8.14746 12.1443-9.46582 11.6213-10.3359 11.0984-11.2061 10.2876-11.6411 9.18896-11.6411 8.74951-11.6411 8.31665-11.5554 7.89038-11.384 7.46411-11.2126 7.08398-10.9885 6.75-10.7117 6.41602-10.4348 6.14795-10.125 5.9458-9.78223 5.74365-9.43945 5.64258-9.09668 5.64258-8.75391Z" transform="translate(40.3719 46)"/></g></g></g><rect x="467.5" y="472.5" width="187" height="38" stroke="#5B9BD5" stroke-width="0.666667" stroke-miterlimit="8" fill="#9DC3E6"/><path d="M17.3076-18.7349C17.4883-19.2407 17.6298-19.7165 17.7322-20.1621 17.8346-20.6077 17.8857-21.0775 17.8857-21.5713 17.8857-22.1615 17.7322-22.6131 17.425-22.9263 17.1179-23.2394 16.6452-23.4201 16.0068-23.4683L16.0068-24.6606 23.7935-24.6606 23.7935-23.4683C23.3358-23.396 22.9473-23.2485 22.6282-23.0256 22.309-22.8028 22.0199-22.4836 21.761-22.0681 21.502-21.6526 21.1979-20.9751 20.8486-20.0356L13.2788 0.126465 9.10547 0.126465 3.14355-20.1079C2.87858-21.0112 2.65576-21.6526 2.4751-22.032 2.29443-22.4114 2.05957-22.7185 1.77051-22.9534 1.48145-23.1882 1.07796-23.3599 0.560059-23.4683L0.560059-24.6606 10.5508-24.6606 10.5508-23.4683C9.92448-23.396 9.46077-23.2214 9.15967-22.9443 8.85856-22.6673 8.70801-22.2759 8.70801-21.77 8.70801-21.3726 8.74414-20.9841 8.81641-20.6047 8.88867-20.2253 9.03922-19.6201 9.26807-18.7891L12.8452-5.81738Z" transform="translate(535.657 502)"/><path d="M5.64258 2.29395C5.64258 2.8125 5.65356 3.2102 5.67554 3.48706 5.69751 3.76392 5.76343 3.97705 5.87329 4.12646 5.98315 4.27588 6.15674 4.39014 6.39404 4.46924 6.63135 4.54834 6.96533 4.64941 7.396 4.77246L7.396 5.64258 1.41064 5.64258 1.41064 4.77246C1.78857 4.6582 2.08521 4.56152 2.30054 4.48242 2.51587 4.40332 2.67847 4.28906 2.78833 4.13965 2.89819 3.99023 2.96851 3.7749 2.99927 3.49365 3.03003 3.2124 3.04541 2.8125 3.04541 2.29395L3.04541-9.45264C3.04541-9.95361 3.04321-10.3667 3.03882-10.6919 3.03442-11.0171 2.98169-11.2852 2.88062-11.4961 2.77954-11.707 2.60596-11.8718 2.35986-11.9905 2.11377-12.1091 1.75342-12.208 1.27881-12.2871L1.27881-13.1836 4.69336-13.3286 5.66895-13.3286C5.64258-12.9507 5.61182-12.5793 5.57666-12.2146 5.5415-11.8499 5.51074-11.4829 5.48438-11.1138 5.51074-11.0962 5.53491-11.0874 5.55688-11.0874 5.57886-11.0874 5.59863-11.0786 5.61621-11.061 6.17871-11.606 6.6731-12.0388 7.09937-12.3596 7.52563-12.6804 7.91455-12.9221 8.26611-13.0847 8.61768-13.2473 8.94727-13.3506 9.25488-13.3945 9.5625-13.4385 9.8877-13.4604 10.2305-13.4604 11.8213-13.4604 13.0452-12.8804 13.9021-11.7202 14.759-10.5601 15.1875-8.87695 15.1875-6.6709 15.1875-5.47559 15.0403-4.44507 14.7458-3.57935 14.4514-2.71362 14.0383-1.99731 13.5066-1.43042 12.9749-0.863525 12.3333-0.443848 11.5818-0.171387 10.8303 0.101074 9.99756 0.237305 9.0835 0.237305 7.73877 0.237305 6.5918 0.0307617 5.64258-0.382324ZM5.64258-4.97021C5.64258-4.1792 5.7063-3.52881 5.83374-3.01904 5.96118-2.50928 6.16113-2.10718 6.43359-1.81274 6.70605-1.51831 7.05102-1.31616 7.46851-1.2063 7.88599-1.09644 8.38037-1.0415 8.95166-1.0415 10.103-1.0415 10.9666-1.48975 11.5422-2.38623 12.1179-3.28271 12.4058-4.61426 12.4058-6.38086 12.4058-8.14746 12.1443-9.46582 11.6213-10.3359 11.0984-11.2061 10.2876-11.6411 9.18896-11.6411 8.74951-11.6411 8.31665-11.5554 7.89038-11.384 7.46411-11.2126 7.08398-10.9885 6.75-10.7117 6.41602-10.4348 6.14795-10.125 5.9458-9.78223 5.74365-9.43945 5.64258-9.09668 5.64258-8.75391Z" transform="translate(556.544 509)"/><g clip-path="url(#clip22)" filter="url(#fx4)" transform="translate(696 203)"><g clip-path="url(#clip23)"><path d="M8.27629 6.93433 288.692 147.396 287.796 149.184 7.38057 8.72253ZM288.843 144.116 294.205 151.276 285.261 151.269Z"/></g></g><path d="M701.448 207.106 981.863 347.567 980.968 349.355 700.552 208.894ZM982.015 344.288 987.376 351.447 978.432 351.441Z"/><g clip-path="url(#clip24)" filter="url(#fx5)" transform="translate(689 377)"><g clip-path="url(#clip25)"><path d="M0.447861-0.894103 280.863 139.567 279.968 141.355-0.447861 0.894103ZM281.015 136.288 286.376 143.447 277.432 143.441Z" transform="matrix(-1 0 0 1 301.205 7.82843)"/></g></g><path d="M0.447861-0.894103 280.863 139.567 279.968 141.355-0.447861 0.894103ZM281.015 136.288 286.376 143.447 277.432 143.441Z" transform="matrix(-1 0 0 1 987.376 382)"/><g clip-path="url(#clip26)" filter="url(#fx6)" transform="translate(522 66)"><g clip-path="url(#clip27)"><path d="M6.82843 21.8284 278.205 21.8285 278.205 27.8285 6.82843 27.8284ZM275.205 15.8285 293.205 24.8285 275.205 33.8285Z"/></g></g><path d="M526 85 797.376 85.0001 797.376 91.0001 526 91ZM794.376 79.0001 812.376 88.0001 794.376 97.0001Z"/><g clip-path="url(#clip28)" filter="url(#fx7)" transform="translate(492 617)"><g clip-path="url(#clip29)"><path d="M39.8285 21.8284 311.205 21.8285 311.205 27.8285 39.8285 27.8284ZM42.8284 33.8284 24.8284 24.8284 42.8284 15.8284Z"/></g></g><path d="M529 636 800.376 636 800.376 642 529 642ZM532 648 514 639 532 630Z"/><text font-family="DengXian,DengXian_MSFontService,sans-serif" font-weight="700" font-size="27" transform="translate(585.826 56)">Construction<tspan font-size="27" x="0" y="629">Decomposition</tspan></text><rect x="273.5" y="145.5" width="73" height="124" stroke="#A9D18E" stroke-width="1.33333" stroke-miterlimit="8" fill="#FF99CC"/><rect x="276.5" y="459.5" width="43" height="128" stroke="#A9D18E" stroke-width="1.33333" stroke-miterlimit="8" fill="#FF99CC"/><path d="M239.5 146.834C239.5 131.186 252.186 118.5 267.834 118.5L646.166 118.5C661.814 118.5 674.5 131.186 674.5 146.834L674.5 260.166C674.5 275.814 661.814 288.5 646.166 288.5L267.834 288.5C252.186 288.5 239.5 275.814 239.5 260.166Z" stroke="#2F528F" stroke-width="3" stroke-miterlimit="8" stroke-dasharray="12 9" fill="none" fill-rule="evenodd"/><g clip-path="url(#clip30)" filter="url(#fx8)" transform="translate(91 196)"><g clip-path="url(#clip31)"><path d="M6.83516 12.8285 164.16 13.8876 164.147 15.8876 6.8217 14.8284ZM162.847 10.8787 170.82 14.9325 162.793 18.8785Z"/></g></g><path d="M95.0067 206 252.332 207.059 252.318 209.059 94.9933 208ZM251.018 204.05 258.991 208.104 250.965 212.05Z"/><g clip-path="url(#clip32)" filter="url(#fx9)" transform="translate(81 516)"><g clip-path="url(#clip33)"><path d="M21.5014 13.8733 178.826 14.9325 178.813 16.9324 21.488 15.8733ZM22.8013 18.8822 14.8284 14.8284 22.8552 10.8824Z"/></g></g><path d="M99.673 527.045 256.998 528.104 256.985 530.104 99.6595 529.045ZM100.973 532.054 93 528 101.027 524.054Z"/><path d="M239.5 467.001C239.5 451.26 252.26 438.5 268.001 438.5L646 438.5C661.74 438.5 674.5 451.26 674.5 467.001L674.5 581C674.5 596.74 661.74 609.5 646 609.5L268.001 609.5C252.26 609.5 239.5 596.74 239.5 581Z" stroke="#2F528F" stroke-width="3" stroke-miterlimit="8" stroke-dasharray="12 9" fill="none" fill-rule="evenodd"/><text font-family="DengXian,DengXian_MSFontService,sans-serif" font-weight="700" font-size="24" transform="translate(124.518 249)">Batch<tspan font-size="24" x="0" y="29">Input</tspan><tspan font-size="24" x="0" y="319">Batch</tspan><tspan font-size="24" x="0" y="348">Output</tspan></text><text font-family="Cambria Math,Cambria Math_MSFontService,sans-serif" font-weight="400" font-size="24" transform="matrix(0.894161 0.447745 -0.447745 0.894161 762.1 214)">ğ‘¼<tspan font-size="18" x="17.8506" y="5.60019">ğ’ğ’ğ’“ğ’</tspan><tspan font-size="18" x="17.5094" y="-8.76773">ğ‘»</tspan><tspan font-size="24" x="65.7959" y="0.60416">ğ‘½</tspan><tspan font-size="18" x="81.1519" y="5.21675">ğ’ğ’ğ’“ğ’</tspan><tspan font-size="24" x="134.705" y="0.767963">âˆ—</tspan><tspan font-size="24" x="151.431" y="0.221031">ğ«</tspan><tspan font-size="18" x="161.158" y="5.41539">ğ¬ğœğšğ¥ğ</tspan></text><text font-family="DengXian,DengXian_MSFontService,sans-serif" font-weight="700" font-size="24" transform="translate(604.554 215)">fixed<tspan font-size="24" x="2.7074" y="288">fixed</tspan></text><text font-family="DengXian,DengXian_MSFontService,sans-serif" font-weight="700" font-size="24" transform="matrix(0.879943 -0.47508 0.47508 0.879943 728.844 495)">Matrix Decomposition</text><text font-family="Cambria Math,Cambria Math_MSFontService,sans-serif" font-weight="400" font-size="37" transform="translate(290.36 222)">ğ”<tspan font-size="27" x="27.02" y="-13">T</tspan><tspan font-size="37" x="-14.1399" y="324">ğ”</tspan><tspan font-size="27" x="11.6934" y="333">b</tspan><tspan font-size="27" x="12.8801" y="308">T</tspan><tspan font-family="DengXian,DengXian_MSFontService,sans-serif" font-size="32" x="105.946" y="320">X</tspan></text><g clip-path="url(#clip34)" filter="url(#fx10)" transform="translate(552 231)"><g clip-path="url(#clip35)"><path d="M15.8285 7.32848 15.8286 222.8 14.8286 222.8 14.8285 7.32848ZM19.3286 221.467 15.3286 229.467 11.3286 221.467Z"/></g></g><path d="M564.833 235.5 564.833 450.972 564.167 450.972 564.167 235.5ZM568.5 449.638 564.5 457.638 560.5 449.638Z"/><text font-family="DengXian,DengXian_MSFontService,sans-serif" font-weight="700" font-size="24" transform="matrix(-1.83697e-16 -1 1 -1.83697e-16 545.956 433)">PCA<tspan font-family="Cambria Math,Cambria Math_MSFontService,sans-serif" font-weight="400" font-size="24" x="45" y="8.26637e-15">âˆ—</tspan></text><path d="M529.461 356.321 529.461 353.332 529.956 353.332 529.956 325.5 529.956 296.5 531.956 296.5 531.956 325.5 531.956 354.5 531.019 354.5 531.019 355.453 552.558 361.758 552.558 362.895 542.129 367.746 543.008 369.727 542.129 370.09 540.371 366.246 549.465 362.11Z" fill-rule="evenodd"/><text font-family="Cambria Math,Cambria Math_MSFontService,sans-serif" font-weight="400" font-size="24" transform="matrix(-1.83697e-16 -1 1 -1.83697e-16 545.956 355)">ğ’“<tspan font-size="18" x="13" y="4.89996">ğ’”ğ’„ğ’‚ğ’ğ’†</tspan></text></g></svg>