<svg width="1091" height="663" xmlns="http://www.w3.org/2000/svg" xmlns:xlink="http://www.w3.org/1999/xlink" overflow="hidden"><defs><clipPath id="clip0"><rect x="0" y="0" width="1091" height="663"/></clipPath></defs><g clip-path="url(#clip0)"><rect x="0" y="0" width="1091" height="662.667" fill="#FFFFFF"/><path d="M1.33266-2.84757e-06 1.33276 46.4705-1.33256 46.4706-1.33266 2.84757e-06ZM5.81553 39.146 0.000104862 49.1153-5.81536 39.146C-6.18622 38.5103-5.97148 37.6943-5.33573 37.3234-4.69998 36.9525-3.88397 37.1673-3.51311 37.803L1.15122 45.799-1.15103 45.799 3.51328 37.803C3.88413 37.1673 4.70014 36.9525 5.33589 37.3234 5.97164 37.6942 6.18638 38.5102 5.81553 39.146Z" fill="#000000" fill-opacity="0.941176" transform="matrix(1.0005 0 0 -1 404.5 496.384)"/><path d="M1.33266-2.84757e-06 1.33276 46.4705-1.33256 46.4706-1.33266 2.84757e-06ZM5.81553 39.146 0.000104862 49.1153-5.81536 39.146C-6.18622 38.5103-5.97148 37.6943-5.33573 37.3234-4.69998 36.9525-3.88397 37.1673-3.51311 37.803L1.15122 45.799-1.15103 45.799 3.51328 37.803C3.88413 37.1673 4.70014 36.9525 5.33589 37.3234 5.97164 37.6942 6.18638 38.5102 5.81553 39.146Z" fill="#000000" fill-opacity="0.941176" transform="matrix(1.0005 0 0 -1 673.5 494.385)"/><path d="M1.33266-2.84757e-06 1.33276 46.4705-1.33256 46.4706-1.33266 2.84757e-06ZM5.81553 39.146 0.000104862 49.1153-5.81536 39.146C-6.18622 38.5103-5.97148 37.6943-5.33573 37.3234-4.69998 36.9525-3.88397 37.1673-3.51311 37.803L1.15122 45.799-1.15103 45.799 3.51328 37.803C3.88413 37.1673 4.70014 36.9525 5.33589 37.3234 5.97164 37.6942 6.18638 38.5102 5.81553 39.146Z" fill="#000000" fill-opacity="0.941176" transform="matrix(1.0005 0 0 -1 404.5 370.448)"/><path d="M1.33266-2.84757e-06 1.33276 46.4705-1.33256 46.4706-1.33266 2.84757e-06ZM5.81553 39.146 0.000104862 49.1153-5.81536 39.146C-6.18622 38.5103-5.97148 37.6943-5.33573 37.3234-4.69998 36.9525-3.88397 37.1673-3.51311 37.803L1.15122 45.799-1.15103 45.799 3.51328 37.803C3.88413 37.1673 4.70014 36.9525 5.33589 37.3234 5.97164 37.6942 6.18638 38.5102 5.81553 39.146Z" fill="#000000" fill-opacity="0.941176" transform="matrix(1.0005 0 0 -1 673.5 372.447)"/><path d="M1.49925-3.49368e-06 1.49933 37.5342-1.49916 37.5343-1.49925 3.49368e-06ZM4.49782 36.035 0.000104934 45.0305-4.49765 36.035Z" fill="#4472C4" transform="matrix(1.0005 0 0 -1 110.5 556.273)"/><path d="M0.0283883-1.49898 28.7205-0.955594 28.6637 2.04236-0.0283883 1.49898ZM27.2783-3.98194 36.187 0.685325 27.1079 5.01193Z" fill="#4472C4" transform="matrix(1.0005 0 0 -1 110.5 555.906)"/><path d="M119.202 516.338 126.406 525.93 124.007 527.73 116.803 518.138ZM131.809 533.125 139.013 542.717 136.614 544.517 129.41 534.925ZM144.416 549.911 147.816 554.439 145.417 556.239 142.017 551.711ZM115.304 521.137 113.5 511.243 122.502 515.737Z" fill="#4472C4"/><path d="M1.49924-0.0048228 1.56589 20.7156-1.43258 20.7252-1.49924 0.0048228ZM4.55955 19.2067 0.090768 28.2166-4.43588 19.2356Z" fill="#C00000" transform="matrix(1.0005 0 0 -1 107.5 236.612)"/><path d="M108.5 235.881 123.816 235.882 123.816 238.88 108.5 238.88ZM122.316 232.883 131.316 237.381 122.316 241.879Z" fill="#C00000"/><path d="M116.264 213.42 123.586 222.923 121.209 224.752 113.887 215.249ZM129.077 230.05 135.123 237.898 132.746 239.728 126.7 231.88ZM112.426 218.267 110.5 208.395 119.556 212.778Z" fill="#C00000"/><path d="M516.167 405.963 557.635 405.963 557.635 406.629 516.167 406.629ZM517.5 410.294 509.5 406.296 517.5 402.298ZM556.302 402.298 564.302 406.296 556.302 410.294Z" fill="#4472C4"/><path d="M1.33266-2.84757e-06 1.33276 46.4705-1.33256 46.4706-1.33266 2.84757e-06ZM5.81553 39.146 0.000104862 49.1153-5.81536 39.146C-6.18622 38.5103-5.97148 37.6943-5.33573 37.3234-4.69998 36.9525-3.88397 37.1673-3.51311 37.803L1.15122 45.799-1.15103 45.799 3.51328 37.803C3.88413 37.1673 4.70014 36.9525 5.33589 37.3234 5.97164 37.6942 6.18638 38.5102 5.81553 39.146Z" fill="#000000" fill-opacity="0.941176" transform="matrix(1.0005 0 0 -1 673.5 170.548)"/><rect x="348.5" y="38.4807" width="632" height="47.9759" stroke="#000000" stroke-width="3.33333" stroke-linejoin="round" stroke-miterlimit="10" stroke-dasharray="13.3333 10" fill="none"/><text font-family="Cambria Math,Cambria Math_MSFontService,sans-serif" font-weight="400" font-size="32" transform="matrix(1 0 0 0.999497 373.352 73)">𝑓<tspan font-size="32" x="18.6067" y="0">(</tspan><tspan font-size="32" x="31.94" y="0">𝑅𝑇𝑆𝑖𝑚𝑇𝑟𝑎𝑛𝑠𝑇𝑒𝑟𝑚</tspan><tspan font-size="32" x="287.82" y="0">,</tspan><tspan font-size="32" x="299.653" y="0">𝐵𝑖𝑛𝑎𝑟𝑖𝑧𝑎𝑡𝑖𝑜𝑛𝑇𝑒𝑟𝑚</tspan><tspan font-size="32" x="561.2" y="0">)</tspan><tspan font-size="40" x="15.565" y="523.263">𝑥</tspan><tspan font-size="29" x="36.505" y="531.267">𝑖</tspan><tspan font-size="40" x="285.515" y="524.263">𝑥</tspan><tspan font-size="29" x="302.888" y="532.268">𝑗</tspan><tspan font-size="40" x="555.137" y="522.262">𝑥</tspan><tspan font-size="29" x="576.077" y="531.267">𝑖𝑗</tspan><tspan font-family="Calibri,Calibri_MSFontService,sans-serif" font-size="21" x="-301.285" y="525.264">Original RT</tspan><tspan font-size="40" x="20.0019" y="193.097">𝑦</tspan><tspan font-size="29" x="41.1219" y="201.101">𝑖</tspan><tspan font-size="40" x="285.515" y="194.098">𝑦</tspan><tspan font-size="29" x="304.335" y="202.102">𝑗</tspan><tspan font-size="40" x="553.746" y="197.099">𝑦</tspan><tspan font-size="29" x="574.866" y="205.103">𝑖𝑗</tspan><tspan font-family="Calibri,Calibri_MSFontService,sans-serif" font-size="21" x="-313.439" y="204.103">Subspace RT</tspan></text><path d="M942.264 185.434 949.586 194.937 947.209 196.766 939.887 187.263ZM955.077 202.064 961.123 209.912 958.746 211.742 952.7 203.894ZM938.426 190.281 936.5 180.409 945.557 184.792Z" fill="#C00000"/><path d="M1.49925-5.81002e-06 1.49932 19.5815-1.49917 19.5815-1.49925 5.81002e-06ZM4.49781 18.0822 0.000104934 27.0777-4.49767 18.0823Z" fill="#C00000" transform="matrix(1.0005 0 0 -1 407.5 211.485)"/><path d="M930.202 503.345 937.406 512.937 935.007 514.737 927.803 505.145ZM942.809 520.131 950.013 529.723 947.614 531.523 940.41 521.931ZM955.416 536.918 958.816 541.445 956.417 543.245 953.017 538.718ZM926.304 508.144 924.5 498.25 933.502 502.744Z" fill="#4472C4"/><path d="M1.49925-3.49368e-06 1.49933 37.5342-1.49916 37.5343-1.49925 3.49368e-06ZM4.49782 36.035 0.000104934 45.0305-4.49765 36.035Z" fill="#4472C4" transform="matrix(1.0005 0 0 -1 406.5 552.276)"/><text font-family="Calibri,Calibri_MSFontService,sans-serif" font-weight="400" font-size="24" transform="matrix(1 0 0 0.999497 89.7737 568)">A<tspan font-size="24" x="-0.000320435" y="-53.0266">B</tspan><tspan font-size="24" x="59.3031" y="4.00201">C</tspan><tspan font-size="24" x="-1.80452" y="-318.16">A</tspan><tspan font-size="24" x="-1.06247" y="-355.178">B</tspan><tspan font-size="24" x="46.7854" y="-316.159">C</tspan></text><rect x="308" y="388.805" width="190" height="34.9824" stroke="#000000" stroke-width="2" stroke-miterlimit="8" fill="#FFFFFF"/><text font-family="DengXian,DengXian_MSFontService,sans-serif" font-weight="400" font-size="24" transform="matrix(1 0 0 0.999497 318.971 414)">单隐层神经网络</text><path d="M1.49925-3.49368e-06 1.49933 37.5342-1.49916 37.5343-1.49925 3.49368e-06ZM4.49782 36.035 0.000104934 45.0305-4.49765 36.035Z" fill="#4472C4" transform="matrix(6.12631e-17 1 1.0005 -6.12323e-17 651.5 534.232)"/><path d="M1.49925-5.81002e-06 1.49932 19.5815-1.49917 19.5815-1.49925 5.81002e-06ZM4.49781 18.0822 0.000104934 27.0777-4.49767 18.0823Z" fill="#C00000" transform="matrix(6.12631e-17 1 1.0005 -6.12323e-17 660.5 200.399)"/><rect x="577" y="387.805" width="199" height="35.9819" stroke="#000000" stroke-width="2" stroke-miterlimit="8" fill="#FFFFFF"/><text font-family="DengXian,DengXian_MSFontService,sans-serif" font-weight="400" font-size="24" transform="matrix(1 0 0 0.999497 592.114 413)">单隐层神经网络<tspan font-size="21" x="-73.7603" y="36.0181">权重</tspan><tspan font-size="21" x="-73.7603" y="62.0312">共享</tspan><tspan font-family="Calibri,Calibri_MSFontService,sans-serif" font-size="21" x="-417.446" y="-169.085">Outpu</tspan><tspan font-family="Calibri,Calibri_MSFontService,sans-serif" font-size="21" x="-362.612" y="-169.085">t</tspan></text><path d="M293 289.854C281.954 289.854 273 288.363 273 286.523L273 240.212C273 238.372 264.046 236.881 253 236.881 264.046 236.881 273 235.389 273 233.549L273 187.239C273 185.399 281.954 183.908 293 183.908" stroke="#000000" stroke-width="2" stroke-miterlimit="8" fill="none" fill-rule="evenodd"/><text font-family="Calibri,Calibri_MSFontService,sans-serif" font-weight="400" font-size="21" transform="matrix(1 0 0 0.999497 184.954 561)">Inpu<tspan font-size="21" x="38.8333" y="0">t</tspan></text><path d="M291 607.694C279.954 607.694 271 606.203 271 604.363L271 558.053C271 556.213 262.046 554.721 251 554.721 262.046 554.721 271 553.229 271 551.39L271 505.079C271 503.239 279.954 501.748 291 501.748" stroke="#000000" stroke-width="2" stroke-miterlimit="8" fill="none" fill-rule="evenodd"/><text font-family="Calibri,Calibri_MSFontService,sans-serif" font-weight="400" font-size="21" transform="matrix(1 0 0 0.999497 120.292 68)">Loss<tspan font-size="21" x="41.8333" y="0">Functio</tspan>n</text><path d="M292 97.9508C281.23 97.9508 272.5 96.4965 272.5 94.7025L272.5 65.7169C272.5 63.9229 263.77 62.4686 253 62.4686 263.77 62.4686 272.5 61.0143 272.5 59.2203L272.5 30.2347C272.5 28.4407 281.23 26.9864 292 26.9864" stroke="#000000" stroke-width="2" stroke-miterlimit="8" fill="none" fill-rule="evenodd"/></g></svg>